<?xml version="1.0" encoding="utf-8"?>
<!--Designed by Vexels.com - 2018 All Rights Reserved - https://vexels.com/terms-and-conditions/-->
<svg version="1.1" id="Layer_1" xmlns="http://www.w3.org/2000/svg" xmlns:xlink="http://www.w3.org/1999/xlink" x="0px" y="0px"
	 viewBox="0 0 1200 1200" enable-background="new 0 0 1200 1200" xml:space="preserve">
<g>
	<polygon fill="none" points="600.551,429.481 600.551,429.483 755.671,736.886 755.671,736.886 755.681,736.878 600.555,429.49 	
		"/>
	<polygon fill="none" points="600.542,426.505 600.555,426.494 798.832,261.773 798.805,261.773 600.542,426.458 	"/>
	<path fill="none" d="M444.34,736.887l0.043,0.09c-0.002-0.006-0.042-0.09-0.042-0.09l0.002-0.004l-96.329-75.609L444.34,736.887z"
		/>
	<polygon fill="none" points="155.464,427.359 155.469,427.346 50.011,427.346 50.027,427.359 	"/>
	<polygon fill="none" points="1012.603,349.643 1044.515,427.359 1149.979,427.359 1090.957,473.693 1150,427.346 1044.52,427.346 	
		"/>
	<polygon fill="#87E6FF" points="401.211,261.777 401.2,261.768 251.139,194.527 320.651,427.359 	"/>
	<polygon fill="#77DFF7" points="401.211,261.777 320.651,427.359 599.472,427.359 599.472,427.345 599.472,426.458 	"/>
	<polygon fill="#9DEBFF" points="155.469,427.346 155.464,427.359 320.651,427.359 251.139,194.527 212.741,287.973 155.49,427.346 
			"/>
	<polygon fill="#30D6F2" points="155.49,427.346 212.741,287.973 251.112,194.56 50.011,427.346 155.469,427.346 	"/>
	<polygon fill="#30D6F2" points="155.464,427.359 444.345,736.88 444.349,736.872 320.651,427.359 	"/>
	<path fill="#87E6FF" d="M444.349,736.872l155.112-307.389c0.006-1.328,0.011-2.105,0.011-2.124H320.651L444.349,736.872z"/>
	<polygon fill="#87E6FF" points="599.479,427.359 600.008,428.404 600.535,427.359 599.49,427.359 	"/>
	<polygon fill="#45DDFD" points="50,427.359 50.072,427.416 50.023,427.359 	"/>
	<polygon fill="#45DDFD" points="50.027,427.359 348.014,661.273 444.344,736.882 444.345,736.88 155.464,427.359 	"/>
	<path fill="#23BEE2" d="M444.34,736.887l-96.326-75.614L50.027,427.359l-0.016-0.013l0.011,0.013l0.05,0.057l549.047,632.386
		c-15.127-23.002-153.827-320.873-154.736-322.825L444.34,736.887z"/>
	<polygon fill="#23BEE2" points="600.539,1061.438 600.539,1061.437 600.539,1061.437 	"/>
	<polygon fill="#23BEE2" points="401.187,261.757 599.472,261.757 600.542,261.757 798.824,261.757 798.805,261.773 
		798.832,261.773 948.905,194.527 810.018,138.532 389.961,138.532 251.139,194.527 401.2,261.768 	"/>
	<polygon fill="#87E6FF" points="600.01,426.905 600.024,426.893 600.542,426.505 600.542,426.458 798.805,261.773 798.824,261.757 
		600.542,261.757 599.472,261.757 401.187,261.757 401.2,261.768 401.211,261.777 599.472,426.458 599.472,427.345 600.006,426.901 
			"/>
	<polygon fill="#87E6FF" points="879.329,427.359 948.905,194.527 798.832,261.773 	"/>
	<polygon fill="#77DFF7" points="879.329,427.359 798.832,261.773 600.555,426.494 600.542,426.505 600.024,426.893 600.01,426.905 
		600.006,426.901 599.472,427.345 599.479,427.359 599.49,427.359 600.535,427.359 600.542,427.345 600.542,427.359 
		600.555,427.359 	"/>
	<polygon fill="#9DEBFF" points="1044.515,427.359 1012.603,349.643 948.899,194.56 948.936,194.603 948.905,194.527 
		879.329,427.359 	"/>
	<polygon fill="#30D6F2" points="1012.603,349.643 1044.52,427.346 1150,427.346 948.936,194.603 948.899,194.56 	"/>
	<polygon fill="#30D6F2" points="879.329,427.359 755.699,736.864 755.756,736.82 1044.515,427.359 	"/>
	<path fill="#87E6FF" d="M600.555,427.359h-0.014c0,0.019,0.005,0.796,0.009,2.122l0.005,0.009l155.126,307.389l0.018-0.014
		l123.63-309.505H600.555z"/>
	<polygon fill="#45DDFD" points="1044.515,427.359 755.756,736.82 1090.957,473.693 1149.979,427.359 	"/>
	<path fill="#9DEBFF" d="M599.472,1061.436v0.001c0.068,0.117,0.3-0.127,0.536-0.385c0.234,0.257,0.462,0.498,0.531,0.385l0,0
		c0,0,0.002,0.001,0.002,0.001c0.05-0.087,0.095-0.809,0.142-1.294c0.057-0.083,0.154-0.259,0.215-0.35L599.472,1061.436z"/>
	<path fill="#9DEBFF" d="M755.671,736.887L755.671,736.887L755.671,736.887L600.551,429.483c0-0.001,0-0.001,0-0.002
		c-0.005-1.325-0.009-2.103-0.009-2.122v-0.014l-0.007,0.014l-0.527,1.045l-0.529-1.045l-0.007-0.014v0.014
		c0,0.019-0.006,0.796-0.011,2.124L444.349,736.872l-0.005,0.007l-0.001,0.003l-0.002,0.004c0,0,0.04,0.084,0.042,0.09
		c0.909,1.952,139.61,299.824,154.736,322.825c0.059,0.089,0.155,0.261,0.21,0.341c0.046,0.484,0.092,1.203,0.142,1.292
		L755.671,736.887z"/>
	<polygon fill="#23BEE2" points="600.899,1059.793 1150,427.346 1090.957,473.693 755.756,736.82 755.699,736.864 755.681,736.878 
		755.671,736.886 755.671,736.887 599.472,1061.436 599.471,1061.438 599.472,1061.436 	"/>
</g>
</svg>
